<svg width="78" height="87" viewBox="0 0 78 87" fill="none" xmlns="http://www.w3.org/2000/svg">
<circle cx="39" cy="43" r="39" fill="#080A32"/>
<path d="M52.328 64.406C49.3507 64.406 46.6827 63.9227 44.324 62.956C41.9653 61.9893 40.0707 60.5587 38.64 58.664C37.248 56.7693 36.5133 54.488 36.436 51.82H46.992C47.1467 53.328 47.6687 54.488 48.558 55.3C49.4473 56.0733 50.6073 56.46 52.038 56.46C53.5073 56.46 54.6673 56.1313 55.518 55.474C56.3687 54.778 56.794 53.8307 56.794 52.632C56.794 51.6267 56.446 50.7953 55.75 50.138C55.0927 49.4807 54.2613 48.9393 53.256 48.514C52.2893 48.0887 50.8973 47.6053 49.08 47.064C46.4507 46.252 44.3047 45.44 42.642 44.628C40.9793 43.816 39.5487 42.6173 38.35 41.032C37.1513 39.4467 36.552 37.378 36.552 34.826C36.552 31.0367 37.9247 28.0787 40.67 25.952C43.4153 23.7867 46.992 22.704 51.4 22.704C55.8853 22.704 59.5007 23.7867 62.246 25.952C64.9913 28.0787 66.4607 31.056 66.654 34.884H55.924C55.8467 33.5693 55.3633 32.5447 54.474 31.81C53.5847 31.0367 52.444 30.65 51.052 30.65C49.8533 30.65 48.8867 30.9787 48.152 31.636C47.4173 32.2547 47.05 33.1633 47.05 34.362C47.05 35.6767 47.6687 36.7013 48.906 37.436C50.1433 38.1707 52.0767 38.9633 54.706 39.814C57.3353 40.7033 59.462 41.554 61.086 42.366C62.7487 43.178 64.1793 44.3573 65.378 45.904C66.5767 47.4507 67.176 49.442 67.176 51.878C67.176 54.198 66.5767 56.3053 65.378 58.2C64.218 60.0947 62.5167 61.6027 60.274 62.724C58.0313 63.8453 55.3827 64.406 52.328 64.406Z" fill="white"/>
</svg>
